{
  "accessors": [
    {
      "bufferView": 2,
      "componentType": 5126,
      "count": 1480,
      "max": [
        0.5827211737632751,
        1.0035977363586426,
        -0.044699497520923615
      ],
      "min": [
        -0.5811054110527039,
        0.16379773616790771,
        -0.6050837635993958
      ],
      "type": "VEC3"
    },
    {
      "bufferView": 2,
      "byteOffset": 17760,
      "componentType": 5126,
      "count": 1480,
      "max": [
        0.9150411486625671,
        0.9983071088790894,
        0.9160674810409546
      ],
      "min": [
        -0.9150413274765015,
        -0.9991306662559509,
        -0.9160682559013367
      ],
      "type": "VEC3"
    },
    {
      "bufferView": 1,
      "componentType": 5126,
      "count": 1480,
      "max": [
        0.0,
        0.0
      ],
      "min": [
        0.0,
        0.0
      ],
      "type": "VEC2"
    },
    {
      "bufferView": 0,
      "componentType": 5125,
      "count": 2220,
      "type": "SCALAR"
    },
    {
      "bufferView": 2,
      "byteOffset": 35520,
      "componentType": 5126,
      "count": 2310,
      "max": [
        0.7251664996147156,
        1.0225938558578491,
        0.9570378065109253
      ],
      "min": [
        -0.7417733073234558,
        0.09276406466960907,
        -0.08380083739757538
      ],
      "type": "VEC3"
    },
    {
      "bufferView": 2,
      "byteOffset": 63240,
      "componentType": 5126,
      "count": 2310,
      "max": [
        0.9881623387336731,
        0.9999762773513794,
        0.9998785257339478
      ],
      "min": [
        -0.9885935187339783,
        -0.9949215054512024,
        -0.9976460933685303
      ],
      "type": "VEC3"
    },
    {
      "bufferView": 3,
      "componentType": 5126,
      "count": 2310,
      "max": [
        0.9926745891571045,
        0.9955121874809265,
        0.9988447427749634,
        1.0
      ],
      "min": [
        -0.9965261220932007,
        -0.999857485294342,
        -0.9722229242324829,
        -1.0
      ],
      "type": "VEC4"
    },
    {
      "bufferView": 1,
      "byteOffset": 11840,
      "componentType": 5126,
      "count": 2310,
      "max": [
        21.245288848876953,
        22.04629898071289
      ],
      "min": [
        -20.281614303588867,
        -21.046300888061523
      ],
      "type": "VEC2"
    },
    {
      "bufferView": 1,
      "byteOffset": 30320,
      "componentType": 5126,
      "count": 2310,
      "max": [
        21.245288848876953,
        22.04629898071289
      ],
      "min": [
        -20.281614303588867,
        -21.046300888061523
      ],
      "type": "VEC2"
    },
    {
      "bufferView": 0,
      "byteOffset": 8880,
      "componentType": 5125,
      "count": 11826,
      "type": "SCALAR"
    },
    {
      "bufferView": 2,
      "byteOffset": 90960,
      "componentType": 5126,
      "count": 1438,
      "max": [
        0.7296757698059082,
        1.0553827285766602,
        1.5779403448104858
      ],
      "min": [
        -0.7342560887336731,
        -0.05617523938417435,
        -0.11487612873315811
      ],
      "type": "VEC3"
    },
    {
      "bufferView": 2,
      "byteOffset": 108216,
      "componentType": 5126,
      "count": 1438,
      "max": [
        0.9989016056060791,
        0.9999170303344727,
        0.9988365173339844
      ],
      "min": [
        -0.9989016056060791,
        -0.9999170303344727,
        -0.998837947845459
      ],
      "type": "VEC3"
    },
    {
      "bufferView": 3,
      "byteOffset": 36960,
      "componentType": 5126,
      "count": 1438,
      "max": [
        0.9989421367645264,
        0.9964534044265747,
        0.9353968501091003,
        1.0
      ],
      "min": [
        -0.9103133082389832,
        -0.9966076612472534,
        -0.9897186160087585,
        -1.0
      ],
      "type": "VEC4"
    },
    {
      "bufferView": 1,
      "byteOffset": 48800,
      "componentType": 5126,
      "count": 1438,
      "max": [
        16.194761276245117,
        36.099830627441406
      ],
      "min": [
        -18.88129997253418,
        -31.556472778320313
      ],
      "type": "VEC2"
    },
    {
      "bufferView": 1,
      "byteOffset": 60304,
      "componentType": 5126,
      "count": 1438,
      "max": [
        16.194761276245117,
        36.099830627441406
      ],
      "min": [
        -18.88129997253418,
        -31.556472778320313
      ],
      "type": "VEC2"
    },
    {
      "bufferView": 0,
      "byteOffset": 56184,
      "componentType": 5125,
      "count": 7908,
      "type": "SCALAR"
    },
    {
      "bufferView": 2,
      "byteOffset": 125472,
      "componentType": 5126,
      "count": 3784,
      "max": [
        0.7506869435310364,
        1.0204041004180908,
        0.49619296193122864
      ],
      "min": [
        -0.7581871747970581,
        -0.01320512592792511,
        -0.9275109767913818
      ],
      "type": "VEC3"
    },
    {
      "bufferView": 2,
      "byteOffset": 170880,
      "componentType": 5126,
      "count": 3784,
      "max": [
        0.9887983798980713,
        0.999661922454834,
        0.9877591133117676
      ],
      "min": [
        -0.988251805305481,
        -0.9983381628990173,
        -0.9801837801933289
      ],
      "type": "VEC3"
    },
    {
      "bufferView": 1,
      "byteOffset": 71808,
      "componentType": 5126,
      "count": 3784,
      "max": [
        4.1814961433410645,
        6.548303604125977
      ],
      "min": [
        -3.7363457679748535,
        -7.6678147315979
      ],
      "type": "VEC2"
    },
    {
      "bufferView": 0,
      "byteOffset": 87816,
      "componentType": 5125,
      "count": 18990,
      "type": "SCALAR"
    },
    {
      "bufferView": 2,
      "byteOffset": 216288,
      "componentType": 5126,
      "count": 669,
      "max": [
        0.7326969504356384,
        0.9367257356643677,
        0.9139584302902222
      ],
      "min": [
        -0.7403307557106018,
        -0.014059819281101227,
        -0.9077889919281006
      ],
      "type": "VEC3"
    },
    {
      "bufferView": 2,
      "byteOffset": 224316,
      "componentType": 5126,
      "count": 669,
      "max": [
        0.9963241219520569,
        0.9985898733139038,
        0.9777101278305054
      ],
      "min": [
        -0.9993767738342285,
        -0.9905979037284851,
        -0.9815282821655273
      ],
      "type": "VEC3"
    },
    {
      "bufferView": 3,
      "byteOffset": 59968,
      "componentType": 5126,
      "count": 669,
      "max": [
        0.9999855160713196,
        0.9590246081352234,
        0.9994964003562927,
        1.0
      ],
      "min": [
        -0.9999755620956421,
        -0.8767750859260559,
        -0.7332401871681213,
        -1.0
      ],
      "type": "VEC4"
    },
    {
      "bufferView": 1,
      "byteOffset": 102080,
      "componentType": 5126,
      "count": 669,
      "max": [
        1.0000001192092896,
        0.5625001192092896
      ],
      "min": [
        0.0,
        0.5
      ],
      "type": "VEC2"
    },
    {
      "bufferView": 1,
      "byteOffset": 107432,
      "componentType": 5126,
      "count": 669,
      "max": [
        1.0000001192092896,
        0.5625001192092896
      ],
      "min": [
        0.0,
        0.5
      ],
      "type": "VEC2"
    },
    {
      "bufferView": 0,
      "byteOffset": 163776,
      "componentType": 5125,
      "count": 2874,
      "type": "SCALAR"
    },
    {
      "bufferView": 2,
      "byteOffset": 232344,
      "componentType": 5126,
      "count": 1126,
      "max": [
        0.1796523779630661,
        0.8577865958213806,
        0.9548676013946533
      ],
      "min": [
        -0.18380950391292572,
        0.4314895272254944,
        0.7480084896087646
      ],
      "type": "VEC3"
    },
    {
      "bufferView": 2,
      "byteOffset": 245856,
      "componentType": 5126,
      "count": 1126,
      "max": [
        0.9141620993614197,
        0.9566843509674072,
        0.9550157189369202
      ],
      "min": [
        -0.9042803645133972,
        -0.9533933997154236,
        -0.9853402972221375
      ],
      "type": "VEC3"
    },
    {
      "bufferView": 1,
      "byteOffset": 112784,
      "componentType": 5126,
      "count": 1126,
      "max": [
        1.5621042251586914,
        0.9565863013267517
      ],
      "min": [
        0.1479639708995819,
        -0.04871879518032074
      ],
      "type": "VEC2"
    },
    {
      "bufferView": 0,
      "byteOffset": 175272,
      "componentType": 5125,
      "count": 5580,
      "type": "SCALAR"
    },
    {
      "bufferView": 2,
      "byteOffset": 259368,
      "componentType": 5126,
      "count": 1457,
      "max": [
        0.18965524435043335,
        0.8659447431564331,
        0.9571868777275085
      ],
      "min": [
        -0.19346736371517181,
        0.4195176362991333,
        0.745721161365509
      ],
      "type": "VEC3"
    },
    {
      "bufferView": 2,
      "byteOffset": 276852,
      "componentType": 5126,
      "count": 1457,
      "max": [
        0.9995286464691162,
        0.9831944704055786,
        0.9868109822273254
      ],
      "min": [
        -0.9997897148132324,
        -0.996070921421051,
        -0.99946129322052
      ],
      "type": "VEC3"
    },
    {
      "bufferView": 1,
      "byteOffset": 121792,
      "componentType": 5126,
      "count": 1457,
      "max": [
        3.8074374198913574,
        4.144449234008789
      ],
      "min": [
        -2.678847551345825,
        -3.195502758026123
      ],
      "type": "VEC2"
    },
    {
      "bufferView": 0,
      "byteOffset": 197592,
      "componentType": 5125,
      "count": 6096,
      "type": "SCALAR"
    },
    {
      "bufferView": 2,
      "byteOffset": 294336,
      "componentType": 5126,
      "count": 629,
      "max": [
        0.17149026691913605,
        0.6343187093734741,
        0.9184657335281372
      ],
      "min": [
        -0.17636360228061676,
        0.48498886823654175,
        0.8213310837745667
      ],
      "type": "VEC3"
    },
    {
      "bufferView": 2,
      "byteOffset": 301884,
      "componentType": 5126,
      "count": 629,
      "max": [
        0.998119056224823,
        0.9999659061431885,
        0.9995884895324707
      ],
      "min": [
        -0.9988409280776978,
        -0.9798018932342529,
        -0.9982486963272095
      ],
      "type": "VEC3"
    },
    {
      "bufferView": 1,
      "byteOffset": 133448,
      "componentType": 5126,
      "count": 629,
      "max": [
        4.69066047668457,
        4.028844833374023
      ],
      "min": [
        -1.8265717029571533,
        -2.8931355476379395
      ],
      "type": "VEC2"
    },
    {
      "bufferView": 0,
      "byteOffset": 221976,
      "componentType": 5125,
      "count": 2442,
      "type": "SCALAR"
    },
    {
      "bufferView": 2,
      "byteOffset": 309432,
      "componentType": 5126,
      "count": 940,
      "max": [
        0.06850995123386383,
        0.7456177473068237,
        0.8911020159721375
      ],
      "min": [
        -0.07918699085712433,
        0.6117425560951233,
        0.8157212138175964
      ],
      "type": "VEC3"
    },
    {
      "bufferView": 2,
      "byteOffset": 320712,
      "componentType": 5126,
      "count": 940,
      "max": [
        0.9997081756591797,
        0.9928030371665955,
        0.9943588376045227
      ],
      "min": [
        -0.9993865489959717,
        -0.999182939529419,
        -0.9973024129867554
      ],
      "type": "VEC3"
    },
    {
      "bufferView": 1,
      "byteOffset": 138480,
      "componentType": 5126,
      "count": 940,
      "max": [
        0.7817776799201965,
        0.9816672205924988
      ],
      "min": [
        8.840538066579029e-05,
        8.840538066579029e-05
      ],
      "type": "VEC2"
    },
    {
      "bufferView": 0,
      "byteOffset": 231744,
      "componentType": 5125,
      "count": 4035,
      "type": "SCALAR"
    },
    {
      "bufferView": 2,
      "byteOffset": 331992,
      "componentType": 5126,
      "count": 17223,
      "max": [
        0.31478631496429443,
        1.0086911916732788,
        0.5128709077835083
      ],
      "min": [
        -0.727284848690033,
        -0.01404833048582077,
        -0.972958505153656
      ],
      "type": "VEC3"
    },
    {
      "bufferView": 2,
      "byteOffset": 538668,
      "componentType": 5126,
      "count": 17223,
      "max": [
        0.9999927878379822,
        1.0,
        0.9999960064888
      ],
      "min": [
        -0.9999927878379822,
        -1.0,
        -0.9999991655349731
      ],
      "type": "VEC3"
    },
    {
      "bufferView": 1,
      "byteOffset": 146000,
      "componentType": 5126,
      "count": 17223,
      "max": [
        1.0,
        1.0
      ],
      "min": [
        -5.960464477539063e-08,
        -1.1102230246251565e-16
      ],
      "type": "VEC2"
    },
    {
      "bufferView": 0,
      "byteOffset": 247884,
      "componentType": 5125,
      "count": 32898,
      "type": "SCALAR"
    },
    {
      "bufferView": 2,
      "byteOffset": 745344,
      "componentType": 5126,
      "count": 1837,
      "max": [
        0.7341923117637634,
        0.31797903776168823,
        0.15713679790496826
      ],
      "min": [
        -0.7354401350021362,
        0.11576104164123535,
        -0.06949041038751602
      ],
      "type": "VEC3"
    },
    {
      "bufferView": 2,
      "byteOffset": 767388,
      "componentType": 5126,
      "count": 1837,
      "max": [
        0.9956585168838501,
        0.9962535500526428,
        0.9914952516555786
      ],
      "min": [
        -0.995448112487793,
        -0.996252715587616,
        -0.991493821144104
      ],
      "type": "VEC3"
    },
    {
      "bufferView": 1,
      "byteOffset": 283784,
      "componentType": 5126,
      "count": 1837,
      "max": [
        0.6253486275672913,
        0.46768417954444885
      ],
      "min": [
        0.34358614683151245,
        0.2802055776119232
      ],
      "type": "VEC2"
    },
    {
      "bufferView": 0,
      "byteOffset": 379476,
      "componentType": 5125,
      "count": 5532,
      "type": "SCALAR"
    },
    {
      "bufferView": 2,
      "byteOffset": 789432,
      "componentType": 5126,
      "count": 65532,
      "max": [
        0.49686798453330994,
        0.3366035223007202,
        1.4281983375549316
      ],
      "min": [
        -0.5883740186691284,
        0.06742911040782928,
        0.6689759492874146
      ],
      "type": "VEC3"
    },
    {
      "bufferView": 2,
      "byteOffset": 1575816,
      "componentType": 5126,
      "count": 65532,
      "max": [
        0.9894269704818726,
        0.9995993971824646,
        0.9903183579444885
      ],
      "min": [
        -0.989240288734436,
        -0.9997485876083374,
        -0.9902951121330261
      ],
      "type": "VEC3"
    },
    {
      "bufferView": 1,
      "byteOffset": 298480,
      "componentType": 5126,
      "count": 65532,
      "max": [
        0.875,
        1.0
      ],
      "min": [
        0.125,
        0.0
      ],
      "type": "VEC2"
    },
    {
      "bufferView": 0,
      "byteOffset": 401604,
      "componentType": 5125,
      "count": 98298,
      "type": "SCALAR"
    },
    {
      "bufferView": 2,
      "byteOffset": 2362200,
      "componentType": 5126,
      "count": 5140,
      "max": [
        0.5663532018661499,
        0.20519666373729706,
        1.2982244491577148
      ],
      "min": [
        0.3206159770488739,
        0.06933856755495071,
        0.6916429996490479
      ],
      "type": "VEC3"
    },
    {
      "bufferView": 2,
      "byteOffset": 2423880,
      "componentType": 5126,
      "count": 5140,
      "max": [
        0.9705213308334351,
        0.9988184571266174,
        0.9442363977432251
      ],
      "min": [
        -0.9705146551132202,
        -0.9996265172958374,
        -0.851487398147583
      ],
      "type": "VEC3"
    },
    {
      "bufferView": 1,
      "byteOffset": 822736,
      "componentType": 5126,
      "count": 5140,
      "max": [
        0.875,
        1.0
      ],
      "min": [
        0.125,
        0.0
      ],
      "type": "VEC2"
    },
    {
      "bufferView": 0,
      "byteOffset": 794796,
      "componentType": 5125,
      "count": 7710,
      "type": "SCALAR"
    },
    {
      "bufferView": 2,
      "byteOffset": 2485560,
      "componentType": 5126,
      "count": 3752,
      "max": [
        0.7154431939125061,
        1.015964388847351,
        0.5221036672592163
      ],
      "min": [
        0.07925155758857727,
        0.1003480926156044,
        -0.015331637114286423
      ],
      "type": "VEC3"
    },
    {
      "bufferView": 2,
      "byteOffset": 2530584,
      "componentType": 5126,
      "count": 3752,
      "max": [
        0.8060160875320435,
        0.9996713399887085,
        0.7986628413200378
      ],
      "min": [
        -0.7895621657371521,
        -0.9954144358634949,
        -0.7986616492271423
      ],
      "type": "VEC3"
    },
    {
      "bufferView": 1,
      "byteOffset": 863856,
      "componentType": 5126,
      "count": 3752,
      "max": [
        0.875,
        1.0
      ],
      "min": [
        0.125,
        0.0
      ],
      "type": "VEC2"
    },
    {
      "bufferView": 0,
      "byteOffset": 825636,
      "componentType": 5125,
      "count": 5628,
      "type": "SCALAR"
    },
    {
      "bufferView": 2,
      "byteOffset": 2575608,
      "componentType": 5126,
      "count": 6440,
      "max": [
        0.7222619652748108,
        0.3920480012893677,
        0.9583962559700012
      ],
      "min": [
        -0.733586311340332,
        0.11669935286045074,
        0.4741728901863098
      ],
      "type": "VEC3"
    },
    {
      "bufferView": 2,
      "byteOffset": 2652888,
      "componentType": 5126,
      "count": 6440,
      "max": [
        0.9998809695243835,
        0.9973180294036865,
        0.9898896217346191
      ],
      "min": [
        -0.9999208450317383,
        -0.9974082112312317,
        -0.9567685723304749
      ],
      "type": "VEC3"
    },
    {
      "bufferView": 1,
      "byteOffset": 893872,
      "componentType": 5126,
      "count": 6440,
      "max": [
        0.875,
        1.0
      ],
      "min": [
        0.125,
        0.0
      ],
      "type": "VEC2"
    },
    {
      "bufferView": 0,
      "byteOffset": 848148,
      "componentType": 5125,
      "count": 9660,
      "type": "SCALAR"
    }
  ],
  "asset": {
    "extras": {
      "author": "matheus pedreira (https://sketchfab.com/matheuspedreira)",
      "license": "CC-BY-4.0 (http://creativecommons.org/licenses/by/4.0/)",
      "source": "https://sketchfab.com/3d-models/trucker-hat-dbb5b0e0418540328423c616049c0f64",
      "title": "Trucker Hat"
    },
    "generator": "Sketchfab-12.68.0",
    "version": "2.0"
  },
  "bufferViews": [
    {
      "buffer": 0,
      "byteLength": 886788,
      "name": "floatBufferViews",
      "target": 34963
    },
    {
      "buffer": 0,
      "byteLength": 945392,
      "byteOffset": 886788,
      "byteStride": 8,
      "name": "floatBufferViews",
      "target": 34962
    },
    {
      "buffer": 0,
      "byteLength": 2730168,
      "byteOffset": 1832180,
      "byteStride": 12,
      "name": "floatBufferViews",
      "target": 34962
    },
    {
      "buffer": 0,
      "byteLength": 70672,
      "byteOffset": 4562348,
      "byteStride": 16,
      "name": "floatBufferViews",
      "target": 34962
    }
  ],
  "buffers": [
    {
      "byteLength": 4633020,
      "uri": "scene.bin"
    }
  ],
  "images": [
    {
      "uri": "textures/Material.003_metallicRoughness.png"
    },
    {
      "uri": "textures/Material.003_normal.png"
    },
    {
      "uri": "textures/Material_baseColor.png"
    },
    {
      "uri": "textures/Material.025_baseColor.jpeg"
    },
    {
      "uri": "textures/Material.023_metallicRoughness.png"
    }
  ],
  "materials": [
    {
      "doubleSided": true,
      "name": "Material.027",
      "pbrMetallicRoughness": {
        "baseColorFactor": [
          0.000176317,
          0.000176317,
          0.000176317,
          1.0
        ],
        "metallicFactor": 0.0,
        "roughnessFactor": 0.5
      }
    },
    {
      "doubleSided": true,
      "name": "Material.003",
      "normalTexture": {
        "index": 1,
        "texCoord": 1
      },
      "pbrMetallicRoughness": {
        "baseColorFactor": [
          0.000176317,
          0.000176317,
          0.000176317,
          1.0
        ],
        "metallicFactor": 0.20166667591441761,
        "metallicRoughnessTexture": {
          "index": 0
        }
      }
    },
    {
      "doubleSided": true,
      "name": "Material.002",
      "normalTexture": {
        "index": 1
      },
      "pbrMetallicRoughness": {
        "baseColorFactor": [
          0.000176317,
          0.000176317,
          0.000176317,
          1.0
        ],
        "metallicFactor": 0.0,
        "metallicRoughnessTexture": {
          "index": 0
        }
      }
    },
    {
      "alphaCutoff": 0.5956060698538116,
      "alphaMode": "MASK",
      "doubleSided": true,
      "name": "Material",
      "pbrMetallicRoughness": {
        "baseColorTexture": {
          "index": 2
        },
        "metallicFactor": 0.0,
        "roughnessFactor": 0.5
      }
    },
    {
      "doubleSided": true,
      "name": "Material.005",
      "normalTexture": {
        "index": 1
      },
      "pbrMetallicRoughness": {
        "baseColorFactor": [
          0.000176317,
          0.000176317,
          0.000176317,
          1.0
        ],
        "metallicFactor": 0.0804545547022964,
        "metallicRoughnessTexture": {
          "index": 0
        }
      }
    },
    {
      "doubleSided": true,
      "name": "Material.025",
      "pbrMetallicRoughness": {
        "baseColorTexture": {
          "index": 3
        },
        "metallicFactor": 0.0
      }
    },
    {
      "doubleSided": true,
      "name": "Material.022",
      "pbrMetallicRoughness": {
        "baseColorFactor": [
          0.8,
          0.8,
          0.8,
          1.0
        ],
        "metallicFactor": 0.0
      }
    },
    {
      "doubleSided": true,
      "name": "Material.023",
      "pbrMetallicRoughness": {
        "baseColorFactor": [
          0.8,
          0.8,
          0.8,
          1.0
        ],
        "metallicFactor": 0.0,
        "metallicRoughnessTexture": {
          "index": 4
        }
      }
    },
    {
      "doubleSided": true,
      "name": "Material.024",
      "pbrMetallicRoughness": {
        "baseColorTexture": {
          "index": 3
        },
        "metallicFactor": 0.0
      }
    },
    {
      "doubleSided": true,
      "name": "Material.028",
      "pbrMetallicRoughness": {
        "baseColorFactor": [
          0.000176317,
          0.000176317,
          0.000176317,
          1.0
        ],
        "metallicFactor": 0.0,
        "roughnessFactor": 0.4016666759144176
      }
    },
    {
      "doubleSided": true,
      "name": "Material.006",
      "pbrMetallicRoughness": {
        "metallicFactor": 0.0
      }
    },
    {
      "doubleSided": true,
      "name": "Material.033",
      "pbrMetallicRoughness": {
        "baseColorFactor": [
          0.000176317,
          0.000176317,
          0.000176317,
          1.0
        ],
        "metallicFactor": 0.0,
        "roughnessFactor": 0.457672
      }
    },
    {
      "doubleSided": true,
      "name": "Material.032",
      "pbrMetallicRoughness": {
        "baseColorFactor": [
          0.000176317,
          0.000176317,
          0.000176317,
          1.0
        ],
        "metallicFactor": 0.0,
        "roughnessFactor": 0.595238
      }
    },
    {
      "doubleSided": true,
      "name": "Material.031",
      "pbrMetallicRoughness": {
        "baseColorFactor": [
          0.000176317,
          0.000176317,
          0.000176317,
          1.0
        ],
        "metallicFactor": 0.0,
        "roughnessFactor": 0.595238
      }
    }
  ],
  "meshes": [
    {
      "name": "Object_0",
      "primitives": [
        {
          "attributes": {
            "NORMAL": 1,
            "POSITION": 0,
            "TEXCOORD_0": 2
          },
          "indices": 3,
          "material": 0,
          "mode": 4
        }
      ]
    },
    {
      "name": "Object_1",
      "primitives": [
        {
          "attributes": {
            "NORMAL": 5,
            "POSITION": 4,
            "TANGENT": 6,
            "TEXCOORD_0": 7,
            "TEXCOORD_1": 8
          },
          "indices": 9,
          "material": 1,
          "mode": 4
        }
      ]
    },
    {
      "name": "Object_2",
      "primitives": [
        {
          "attributes": {
            "NORMAL": 11,
            "POSITION": 10,
            "TANGENT": 12,
            "TEXCOORD_0": 13,
            "TEXCOORD_1": 14
          },
          "indices": 15,
          "material": 2,
          "mode": 4
        }
      ]
    },
    {
      "name": "Object_3",
      "primitives": [
        {
          "attributes": {
            "NORMAL": 17,
            "POSITION": 16,
            "TEXCOORD_0": 18
          },
          "indices": 19,
          "material": 3,
          "mode": 4
        }
      ]
    },
    {
      "name": "Object_4",
      "primitives": [
        {
          "attributes": {
            "NORMAL": 21,
            "POSITION": 20,
            "TANGENT": 22,
            "TEXCOORD_0": 23,
            "TEXCOORD_1": 24
          },
          "indices": 25,
          "material": 4,
          "mode": 4
        }
      ]
    },
    {
      "name": "Object_5",
      "primitives": [
        {
          "attributes": {
            "NORMAL": 27,
            "POSITION": 26,
            "TEXCOORD_0": 28
          },
          "indices": 29,
          "material": 5,
          "mode": 4
        }
      ]
    },
    {
      "name": "Object_6",
      "primitives": [
        {
          "attributes": {
            "NORMAL": 31,
            "POSITION": 30,
            "TEXCOORD_0": 32
          },
          "indices": 33,
          "material": 6,
          "mode": 4
        }
      ]
    },
    {
      "name": "Object_7",
      "primitives": [
        {
          "attributes": {
            "NORMAL": 35,
            "POSITION": 34,
            "TEXCOORD_0": 36
          },
          "indices": 37,
          "material": 7,
          "mode": 4
        }
      ]
    },
    {
      "name": "Object_8",
      "primitives": [
        {
          "attributes": {
            "NORMAL": 39,
            "POSITION": 38,
            "TEXCOORD_0": 40
          },
          "indices": 41,
          "material": 8,
          "mode": 4
        }
      ]
    },
    {
      "name": "Object_9",
      "primitives": [
        {
          "attributes": {
            "NORMAL": 43,
            "POSITION": 42,
            "TEXCOORD_0": 44
          },
          "indices": 45,
          "material": 9,
          "mode": 4
        }
      ]
    },
    {
      "name": "Object_10",
      "primitives": [
        {
          "attributes": {
            "NORMAL": 47,
            "POSITION": 46,
            "TEXCOORD_0": 48
          },
          "indices": 49,
          "material": 10,
          "mode": 4
        }
      ]
    },
    {
      "name": "Object_11",
      "primitives": [
        {
          "attributes": {
            "NORMAL": 51,
            "POSITION": 50,
            "TEXCOORD_0": 52
          },
          "indices": 53,
          "material": 11,
          "mode": 4
        }
      ]
    },
    {
      "name": "Object_12",
      "primitives": [
        {
          "attributes": {
            "NORMAL": 55,
            "POSITION": 54,
            "TEXCOORD_0": 56
          },
          "indices": 57,
          "material": 11,
          "mode": 4
        }
      ]
    },
    {
      "name": "Object_13",
      "primitives": [
        {
          "attributes": {
            "NORMAL": 59,
            "POSITION": 58,
            "TEXCOORD_0": 60
          },
          "indices": 61,
          "material": 12,
          "mode": 4
        }
      ]
    },
    {
      "name": "Object_14",
      "primitives": [
        {
          "attributes": {
            "NORMAL": 63,
            "POSITION": 62,
            "TEXCOORD_0": 64
          },
          "indices": 65,
          "material": 13,
          "mode": 4
        }
      ]
    }
  ],
  "nodes": [
    {
      "children": [
        1
      ],
      "matrix": [
        1.0,
        0.0,
        0.0,
        0.0,
        0.0,
        2.220446049250313e-16,
        -1.0,
        0.0,
        0.0,
        1.0,
        2.220446049250313e-16,
        0.0,
        0.0,
        0.0,
        0.0,
        1.0
      ],
      "name": "Sketchfab_model"
    },
    {
      "children": [
        2
      ],
      "name": "root"
    },
    {
      "children": [
        3
      ],
      "matrix": [
        1.0,
        0.0,
        0.0,
        0.0,
        0.0,
        2.220446049250313e-16,
        1.0,
        0.0,
        0.0,
        -1.0,
        2.220446049250313e-16,
        0.0,
        0.0,
        0.0,
        0.0,
        1.0
      ],
      "name": "GLTF_SceneRootNode"
    },
    {
      "children": [
        4,
        5,
        6,
        7,
        8,
        9,
        10,
        11,
        12,
        13,
        14,
        15,
        16,
        17,
        18
      ],
      "matrix": [
        1.0,
        0.0,
        0.0,
        0.0,
        0.0,
        1.0,
        0.0,
        0.0,
        0.0,
        0.0,
        1.0,
        0.0,
        -0.01879577338695526,
        0.06883597373962402,
        0.0263356976211071,
        1.0
      ],
      "name": "TELA BOA.002_0"
    },
    {
      "mesh": 0,
      "name": "Object_4"
    },
    {
      "mesh": 1,
      "name": "Object_5"
    },
    {
      "mesh": 2,
      "name": "Object_6"
    },
    {
      "mesh": 3,
      "name": "Object_7"
    },
    {
      "mesh": 4,
      "name": "Object_8"
    },
    {
      "mesh": 5,
      "name": "Object_9"
    },
    {
      "mesh": 6,
      "name": "Object_10"
    },
    {
      "mesh": 7,
      "name": "Object_11"
    },
    {
      "mesh": 8,
      "name": "Object_12"
    },
    {
      "mesh": 9,
      "name": "Object_13"
    },
    {
      "mesh": 10,
      "name": "Object_14"
    },
    {
      "mesh": 11,
      "name": "Object_15"
    },
    {
      "mesh": 12,
      "name": "Object_16"
    },
    {
      "mesh": 13,
      "name": "Object_17"
    },
    {
      "mesh": 14,
      "name": "Object_18"
    }
  ],
  "samplers": [
    {
      "magFilter": 9729,
      "minFilter": 9987,
      "wrapS": 10497,
      "wrapT": 10497
    }
  ],
  "scene": 0,
  "scenes": [
    {
      "name": "Sketchfab_Scene",
      "nodes": [
        0
      ]
    }
  ],
  "textures": [
    {
      "sampler": 0,
      "source": 0
    },
    {
      "sampler": 0,
      "source": 1
    },
    {
      "sampler": 0,
      "source": 2
    },
    {
      "sampler": 0,
      "source": 3
    },
    {
      "sampler": 0,
      "source": 4
    }
  ]
}
